<?xml version="1.0" encoding="UTF-8" standalone="no"?>
<!DOCTYPE svg PUBLIC "-//W3C//DTD SVG 1.1//EN"
 "http://www.w3.org/Graphics/SVG/1.1/DTD/svg11.dtd">
<!-- Generated by graphviz version 2.40.1 (20161225.0304)
 -->
<!-- Title: %3 Pages: 1 -->
<svg width="1520pt" height="620pt"
 viewBox="0.00 0.00 1519.85 620.00" xmlns="http://www.w3.org/2000/svg" xmlns:xlink="http://www.w3.org/1999/xlink">
<g id="graph0" class="graph" transform="scale(1 1) rotate(0) translate(4 616)">
<title>%3</title>
<polygon fill="#ffffff" stroke="transparent" points="-4,4 -4,-616 1515.8503,-616 1515.8503,4 -4,4"/>
<!-- [root] aws_sns_topic.this -->
<g id="node1" class="node">
<title>[root] aws_sns_topic.this</title>
<polygon fill="none" stroke="#000000" points="641.1354,-324 519.3548,-324 519.3548,-288 641.1354,-288 641.1354,-324"/>
<text text-anchor="middle" x="580.2451" y="-301.8" font-family="Times,serif" font-size="14.00" fill="#000000">aws_sns_topic.this</text>
</g>
<!-- [root] provider.aws -->
<g id="node10" class="node">
<title>[root] provider.aws</title>
<polygon fill="none" stroke="#000000" points="985.2451,-180 906.6368,-162 985.2451,-144 1063.8535,-162 985.2451,-180"/>
<text text-anchor="middle" x="985.2451" y="-157.8" font-family="Times,serif" font-size="14.00" fill="#000000">provider.aws</text>
</g>
<!-- [root] aws_sns_topic.this&#45;&gt;[root] provider.aws -->
<g id="edge2" class="edge">
<title>[root] aws_sns_topic.this&#45;&gt;[root] provider.aws</title>
<path fill="none" stroke="#000000" d="M641.0972,-302.4417C694.8342,-297.1901 773.946,-284.1885 835.2451,-252 855.8425,-241.1842 854.0944,-229.2093 873.2451,-216 895.8442,-200.4121 923.6313,-186.9847 945.8741,-177.4183"/>
<polygon fill="#000000" stroke="#000000" points="947.4903,-180.5355 955.3496,-173.4305 944.7749,-174.0836 947.4903,-180.5355"/>
</g>
<!-- [root] local.default_name -->
<g id="node12" class="node">
<title>[root] local.default_name</title>
<ellipse fill="none" stroke="#000000" cx="580.2451" cy="-162" rx="99.9502" ry="18"/>
<text text-anchor="middle" x="580.2451" y="-157.8" font-family="Times,serif" font-size="14.00" fill="#000000">[root] local.default_name</text>
</g>
<!-- [root] aws_sns_topic.this&#45;&gt;[root] local.default_name -->
<g id="edge1" class="edge">
<title>[root] aws_sns_topic.this&#45;&gt;[root] local.default_name</title>
<path fill="none" stroke="#000000" d="M580.2451,-287.7623C580.2451,-263.201 580.2451,-219.2474 580.2451,-190.3541"/>
<polygon fill="#000000" stroke="#000000" points="583.7452,-190.0896 580.2451,-180.0896 576.7452,-190.0897 583.7452,-190.0896"/>
</g>
<!-- [root] var.module_enabled -->
<g id="node13" class="node">
<title>[root] var.module_enabled</title>
<ellipse fill="none" stroke="#000000" cx="358.2451" cy="-162" rx="103.8351" ry="18"/>
<text text-anchor="middle" x="358.2451" y="-157.8" font-family="Times,serif" font-size="14.00" fill="#000000">[root] var.module_enabled</text>
</g>
<!-- [root] aws_sns_topic.this&#45;&gt;[root] var.module_enabled -->
<g id="edge3" class="edge">
<title>[root] aws_sns_topic.this&#45;&gt;[root] var.module_enabled</title>
<path fill="none" stroke="#000000" d="M552.1287,-287.7623C511.8508,-261.6361 437.7454,-213.5677 393.7399,-185.0236"/>
<polygon fill="#000000" stroke="#000000" points="395.3886,-181.9213 385.0943,-179.4157 391.5792,-187.794 395.3886,-181.9213"/>
</g>
<!-- [root] aws_sns_topic_policy.this -->
<g id="node2" class="node">
<title>[root] aws_sns_topic_policy.this</title>
<polygon fill="none" stroke="#000000" points="378.7194,-468 215.7708,-468 215.7708,-432 378.7194,-432 378.7194,-468"/>
<text text-anchor="middle" x="297.2451" y="-445.8" font-family="Times,serif" font-size="14.00" fill="#000000">aws_sns_topic_policy.this</text>
</g>
<!-- [root] data.aws_iam_policy_document.sns&#45;topic&#45;policy -->
<g id="node7" class="node">
<title>[root] data.aws_iam_policy_document.sns&#45;topic&#45;policy</title>
<polygon fill="none" stroke="#000000" points="290.7358,-396 -.2455,-396 -.2455,-360 290.7358,-360 290.7358,-396"/>
<text text-anchor="middle" x="145.2451" y="-373.8" font-family="Times,serif" font-size="14.00" fill="#000000">data.aws_iam_policy_document.sns&#45;topic&#45;policy</text>
</g>
<!-- [root] aws_sns_topic_policy.this&#45;&gt;[root] data.aws_iam_policy_document.sns&#45;topic&#45;policy -->
<g id="edge4" class="edge">
<title>[root] aws_sns_topic_policy.this&#45;&gt;[root] data.aws_iam_policy_document.sns&#45;topic&#45;policy</title>
<path fill="none" stroke="#000000" d="M258.8891,-431.8314C238.7407,-422.2874 213.8699,-410.5065 192.5369,-400.4013"/>
<polygon fill="#000000" stroke="#000000" points="193.861,-397.1558 183.3253,-396.038 190.8644,-403.482 193.861,-397.1558"/>
</g>
<!-- [root] aws_sns_topic_subscription.this -->
<g id="node3" class="node">
<title>[root] aws_sns_topic_subscription.this</title>
<polygon fill="none" stroke="#000000" points="778.5762,-468 581.914,-468 581.914,-432 778.5762,-432 778.5762,-468"/>
<text text-anchor="middle" x="680.2451" y="-445.8" font-family="Times,serif" font-size="14.00" fill="#000000">aws_sns_topic_subscription.this</text>
</g>
<!-- [root] aws_sns_topic_subscription.this&#45;&gt;[root] aws_sns_topic.this -->
<g id="edge5" class="edge">
<title>[root] aws_sns_topic_subscription.this&#45;&gt;[root] aws_sns_topic.this</title>
<path fill="none" stroke="#000000" d="M680.3385,-431.8848C679.6003,-412.5206 675.9339,-381.6828 661.2451,-360 652.9272,-347.7216 640.7946,-337.5159 628.4398,-329.4047"/>
<polygon fill="#000000" stroke="#000000" points="630.2418,-326.4039 619.8951,-324.1241 626.5618,-332.3586 630.2418,-326.4039"/>
</g>
<!-- [root] aws_sqs_queue.this -->
<g id="node5" class="node">
<title>[root] aws_sqs_queue.this</title>
<polygon fill="none" stroke="#000000" points="834.5695,-396 707.9208,-396 707.9208,-360 834.5695,-360 834.5695,-396"/>
<text text-anchor="middle" x="771.2451" y="-373.8" font-family="Times,serif" font-size="14.00" fill="#000000">aws_sqs_queue.this</text>
</g>
<!-- [root] aws_sns_topic_subscription.this&#45;&gt;[root] aws_sqs_queue.this -->
<g id="edge6" class="edge">
<title>[root] aws_sns_topic_subscription.this&#45;&gt;[root] aws_sqs_queue.this</title>
<path fill="none" stroke="#000000" d="M703.2083,-431.8314C714.4166,-422.9632 728.066,-412.1637 740.1891,-402.5718"/>
<polygon fill="#000000" stroke="#000000" points="742.6188,-405.1125 748.2893,-396.1628 738.2754,-399.6229 742.6188,-405.1125"/>
</g>
<!-- [root] aws_sqs_queue.dead_letter -->
<g id="node4" class="node">
<title>[root] aws_sqs_queue.dead_letter</title>
<polygon fill="none" stroke="#000000" points="826.5285,-252 657.9618,-252 657.9618,-216 826.5285,-216 826.5285,-252"/>
<text text-anchor="middle" x="742.2451" y="-229.8" font-family="Times,serif" font-size="14.00" fill="#000000">aws_sqs_queue.dead_letter</text>
</g>
<!-- [root] aws_sqs_queue.dead_letter&#45;&gt;[root] provider.aws -->
<g id="edge9" class="edge">
<title>[root] aws_sqs_queue.dead_letter&#45;&gt;[root] provider.aws</title>
<path fill="none" stroke="#000000" d="M803.2506,-215.9243C846.0972,-203.229 902.419,-186.5411 940.9927,-175.1118"/>
<polygon fill="#000000" stroke="#000000" points="942.2927,-178.3771 950.8863,-172.1804 940.304,-171.6655 942.2927,-178.3771"/>
</g>
<!-- [root] aws_sqs_queue.dead_letter&#45;&gt;[root] local.default_name -->
<g id="edge7" class="edge">
<title>[root] aws_sqs_queue.dead_letter&#45;&gt;[root] local.default_name</title>
<path fill="none" stroke="#000000" d="M701.3657,-215.8314C678.8753,-205.8356 650.8641,-193.3862 627.4459,-182.9781"/>
<polygon fill="#000000" stroke="#000000" points="628.614,-179.6672 618.0544,-178.8041 625.771,-186.0639 628.614,-179.6672"/>
</g>
<!-- [root] aws_sqs_queue.dead_letter&#45;&gt;[root] var.module_enabled -->
<g id="edge10" class="edge">
<title>[root] aws_sqs_queue.dead_letter&#45;&gt;[root] var.module_enabled</title>
<path fill="none" stroke="#000000" d="M657.4993,-218.1102C592.4026,-205.9045 503.0872,-189.1579 439.0072,-177.1429"/>
<polygon fill="#000000" stroke="#000000" points="439.4208,-173.6595 428.947,-175.2566 438.1307,-180.5396 439.4208,-173.6595"/>
</g>
<!-- [root] local.default_tags -->
<g id="node14" class="node">
<title>[root] local.default_tags</title>
<ellipse fill="none" stroke="#000000" cx="793.2451" cy="-162" rx="95.1395" ry="18"/>
<text text-anchor="middle" x="793.2451" y="-157.8" font-family="Times,serif" font-size="14.00" fill="#000000">[root] local.default_tags</text>
</g>
<!-- [root] aws_sqs_queue.dead_letter&#45;&gt;[root] local.default_tags -->
<g id="edge8" class="edge">
<title>[root] aws_sqs_queue.dead_letter&#45;&gt;[root] local.default_tags</title>
<path fill="none" stroke="#000000" d="M755.1146,-215.8314C761.0181,-207.497 768.13,-197.4567 774.6045,-188.3162"/>
<polygon fill="#000000" stroke="#000000" points="777.6323,-190.0967 780.5565,-179.9134 771.9201,-186.0506 777.6323,-190.0967"/>
</g>
<!-- [root] data.template_file.sqs_redrive_policy -->
<g id="node9" class="node">
<title>[root] data.template_file.sqs_redrive_policy</title>
<polygon fill="none" stroke="#000000" points="1097.1836,-324 871.3066,-324 871.3066,-288 1097.1836,-288 1097.1836,-324"/>
<text text-anchor="middle" x="984.2451" y="-301.8" font-family="Times,serif" font-size="14.00" fill="#000000">data.template_file.sqs_redrive_policy</text>
</g>
<!-- [root] aws_sqs_queue.this&#45;&gt;[root] data.template_file.sqs_redrive_policy -->
<g id="edge11" class="edge">
<title>[root] aws_sqs_queue.this&#45;&gt;[root] data.template_file.sqs_redrive_policy</title>
<path fill="none" stroke="#000000" d="M824.7191,-359.9243C853.964,-350.0387 890.371,-337.7321 921.0177,-327.3726"/>
<polygon fill="#000000" stroke="#000000" points="922.3966,-330.6012 930.7492,-324.0831 920.1549,-323.9698 922.3966,-330.6012"/>
</g>
<!-- [root] aws_sqs_queue_policy.this -->
<g id="node6" class="node">
<title>[root] aws_sqs_queue_policy.this</title>
<polygon fill="none" stroke="#000000" points="564.1533,-468 396.3369,-468 396.3369,-432 564.1533,-432 564.1533,-468"/>
<text text-anchor="middle" x="480.2451" y="-445.8" font-family="Times,serif" font-size="14.00" fill="#000000">aws_sqs_queue_policy.this</text>
</g>
<!-- [root] aws_sqs_queue_policy.this&#45;&gt;[root] aws_sqs_queue.this -->
<g id="edge12" class="edge">
<title>[root] aws_sqs_queue_policy.this&#45;&gt;[root] aws_sqs_queue.this</title>
<path fill="none" stroke="#000000" d="M553.3011,-431.9243C597.4401,-421.0033 653.5208,-407.1277 697.7404,-396.1867"/>
<polygon fill="#000000" stroke="#000000" points="698.693,-399.5567 707.5596,-393.7572 697.0117,-392.7616 698.693,-399.5567"/>
</g>
<!-- [root] data.aws_iam_policy_document.sqs&#45;allow&#45;send_messages -->
<g id="node8" class="node">
<title>[root] data.aws_iam_policy_document.sqs&#45;allow&#45;send_messages</title>
<polygon fill="none" stroke="#000000" points="652.3907,-396 308.0996,-396 308.0996,-360 652.3907,-360 652.3907,-396"/>
<text text-anchor="middle" x="480.2451" y="-373.8" font-family="Times,serif" font-size="14.00" fill="#000000">data.aws_iam_policy_document.sqs&#45;allow&#45;send_messages</text>
</g>
<!-- [root] aws_sqs_queue_policy.this&#45;&gt;[root] data.aws_iam_policy_document.sqs&#45;allow&#45;send_messages -->
<g id="edge13" class="edge">
<title>[root] aws_sqs_queue_policy.this&#45;&gt;[root] data.aws_iam_policy_document.sqs&#45;allow&#45;send_messages</title>
<path fill="none" stroke="#000000" d="M480.2451,-431.8314C480.2451,-424.131 480.2451,-414.9743 480.2451,-406.4166"/>
<polygon fill="#000000" stroke="#000000" points="483.7452,-406.4132 480.2451,-396.4133 476.7452,-406.4133 483.7452,-406.4132"/>
</g>
<!-- [root] data.aws_iam_policy_document.sns&#45;topic&#45;policy&#45;&gt;[root] aws_sns_topic.this -->
<g id="edge14" class="edge">
<title>[root] data.aws_iam_policy_document.sns&#45;topic&#45;policy&#45;&gt;[root] aws_sns_topic.this</title>
<path fill="none" stroke="#000000" d="M254.1721,-359.9707C334.0466,-346.7501 440.1956,-329.1806 509.3496,-317.7344"/>
<polygon fill="#000000" stroke="#000000" points="509.9825,-321.1774 519.2767,-316.0913 508.8393,-314.2713 509.9825,-321.1774"/>
</g>
<!-- [root] var.notification_source_arns -->
<g id="node15" class="node">
<title>[root] var.notification_source_arns</title>
<ellipse fill="none" stroke="#000000" cx="307.2451" cy="-306" rx="132.3254" ry="18"/>
<text text-anchor="middle" x="307.2451" y="-301.8" font-family="Times,serif" font-size="14.00" fill="#000000">[root] var.notification_source_arns</text>
</g>
<!-- [root] data.aws_iam_policy_document.sns&#45;topic&#45;policy&#45;&gt;[root] var.notification_source_arns -->
<g id="edge15" class="edge">
<title>[root] data.aws_iam_policy_document.sns&#45;topic&#45;policy&#45;&gt;[root] var.notification_source_arns</title>
<path fill="none" stroke="#000000" d="M186.1246,-359.8314C208.2854,-349.9821 235.8065,-337.7505 259.012,-327.4369"/>
<polygon fill="#000000" stroke="#000000" points="260.616,-330.5542 268.3326,-323.2945 257.773,-324.1576 260.616,-330.5542"/>
</g>
<!-- [root] data.aws_iam_policy_document.sqs&#45;allow&#45;send_messages&#45;&gt;[root] aws_sns_topic.this -->
<g id="edge16" class="edge">
<title>[root] data.aws_iam_policy_document.sqs&#45;allow&#45;send_messages&#45;&gt;[root] aws_sns_topic.this</title>
<path fill="none" stroke="#000000" d="M505.4793,-359.8314C518.0331,-350.7927 533.3734,-339.7476 546.8843,-330.0198"/>
<polygon fill="#000000" stroke="#000000" points="548.9487,-332.8463 555.019,-324.1628 544.8585,-327.1655 548.9487,-332.8463"/>
</g>
<!-- [root] data.aws_iam_policy_document.sqs&#45;allow&#45;send_messages&#45;&gt;[root] var.notification_source_arns -->
<g id="edge17" class="edge">
<title>[root] data.aws_iam_policy_document.sqs&#45;allow&#45;send_messages&#45;&gt;[root] var.notification_source_arns</title>
<path fill="none" stroke="#000000" d="M436.5899,-359.8314C412.6252,-349.8576 382.7907,-337.4409 357.8159,-327.0468"/>
<polygon fill="#000000" stroke="#000000" points="359.0815,-323.7826 348.5043,-323.1715 356.3918,-330.2452 359.0815,-323.7826"/>
</g>
<!-- [root] data.template_file.sqs_redrive_policy&#45;&gt;[root] aws_sqs_queue.dead_letter -->
<g id="edge18" class="edge">
<title>[root] data.template_file.sqs_redrive_policy&#45;&gt;[root] aws_sqs_queue.dead_letter</title>
<path fill="none" stroke="#000000" d="M923.4907,-287.9243C889.8325,-277.9103 847.8245,-265.412 812.7277,-254.97"/>
<polygon fill="#000000" stroke="#000000" points="813.6075,-251.5802 803.0246,-252.0831 811.6112,-258.2896 813.6075,-251.5802"/>
</g>
<!-- [root] provider.template -->
<g id="node11" class="node">
<title>[root] provider.template</title>
<polygon fill="none" stroke="#000000" points="984.2451,-252 881.9194,-234 984.2451,-216 1086.5708,-234 984.2451,-252"/>
<text text-anchor="middle" x="984.2451" y="-229.8" font-family="Times,serif" font-size="14.00" fill="#000000">provider.template</text>
</g>
<!-- [root] data.template_file.sqs_redrive_policy&#45;&gt;[root] provider.template -->
<g id="edge19" class="edge">
<title>[root] data.template_file.sqs_redrive_policy&#45;&gt;[root] provider.template</title>
<path fill="none" stroke="#000000" d="M984.2451,-287.8314C984.2451,-280.131 984.2451,-270.9743 984.2451,-262.4166"/>
<polygon fill="#000000" stroke="#000000" points="987.7452,-262.4132 984.2451,-252.4133 980.7452,-262.4133 987.7452,-262.4132"/>
</g>
<!-- [root] var.sqs_dead_letter_redrive_max_receive_count -->
<g id="node16" class="node">
<title>[root] var.sqs_dead_letter_redrive_max_receive_count</title>
<ellipse fill="none" stroke="#000000" cx="1308.2451" cy="-234" rx="203.7103" ry="18"/>
<text text-anchor="middle" x="1308.2451" y="-229.8" font-family="Times,serif" font-size="14.00" fill="#000000">[root] var.sqs_dead_letter_redrive_max_receive_count</text>
</g>
<!-- [root] data.template_file.sqs_redrive_policy&#45;&gt;[root] var.sqs_dead_letter_redrive_max_receive_count -->
<g id="edge20" class="edge">
<title>[root] data.template_file.sqs_redrive_policy&#45;&gt;[root] var.sqs_dead_letter_redrive_max_receive_count</title>
<path fill="none" stroke="#000000" d="M1065.5858,-287.9243C1113.5493,-277.2657 1174.1775,-263.7928 1222.8331,-252.9804"/>
<polygon fill="#000000" stroke="#000000" points="1223.7082,-256.3714 1232.7108,-250.7854 1222.1896,-249.5381 1223.7082,-256.3714"/>
</g>
<!-- [root] local.service_name -->
<g id="node17" class="node">
<title>[root] local.service_name</title>
<ellipse fill="none" stroke="#000000" cx="406.2451" cy="-90" rx="100.4261" ry="18"/>
<text text-anchor="middle" x="406.2451" y="-85.8" font-family="Times,serif" font-size="14.00" fill="#000000">[root] local.service_name</text>
</g>
<!-- [root] local.default_name&#45;&gt;[root] local.service_name -->
<g id="edge21" class="edge">
<title>[root] local.default_name&#45;&gt;[root] local.service_name</title>
<path fill="none" stroke="#000000" d="M540.326,-145.4817C515.216,-135.0914 482.6182,-121.6026 455.8521,-110.527"/>
<polygon fill="#000000" stroke="#000000" points="456.8578,-107.1554 446.2794,-106.5659 454.1813,-113.6235 456.8578,-107.1554"/>
</g>
<!-- [root] var.environment -->
<g id="node18" class="node">
<title>[root] var.environment</title>
<ellipse fill="none" stroke="#000000" cx="615.2451" cy="-90" rx="90.3377" ry="18"/>
<text text-anchor="middle" x="615.2451" y="-85.8" font-family="Times,serif" font-size="14.00" fill="#000000">[root] var.environment</text>
</g>
<!-- [root] local.default_name&#45;&gt;[root] var.environment -->
<g id="edge22" class="edge">
<title>[root] local.default_name&#45;&gt;[root] var.environment</title>
<path fill="none" stroke="#000000" d="M589.0771,-143.8314C592.9438,-135.8771 597.5657,-126.369 601.8419,-117.5723"/>
<polygon fill="#000000" stroke="#000000" points="605.07,-118.9371 606.2942,-108.4133 598.7745,-115.8768 605.07,-118.9371"/>
</g>
<!-- [root] var.project -->
<g id="node19" class="node">
<title>[root] var.project</title>
<ellipse fill="none" stroke="#000000" cx="793.2451" cy="-90" rx="70.0495" ry="18"/>
<text text-anchor="middle" x="793.2451" y="-85.8" font-family="Times,serif" font-size="14.00" fill="#000000">[root] var.project</text>
</g>
<!-- [root] local.default_name&#45;&gt;[root] var.project -->
<g id="edge23" class="edge">
<title>[root] local.default_name&#45;&gt;[root] var.project</title>
<path fill="none" stroke="#000000" d="M627.2526,-146.1102C660.9597,-134.7162 706.3734,-119.3651 741.1787,-107.5999"/>
<polygon fill="#000000" stroke="#000000" points="742.3431,-110.9009 750.6957,-104.3829 740.1015,-104.2695 742.3431,-110.9009"/>
</g>
<!-- [root] local.default_tags&#45;&gt;[root] var.environment -->
<g id="edge24" class="edge">
<title>[root] local.default_tags&#45;&gt;[root] var.environment</title>
<path fill="none" stroke="#000000" d="M752.8542,-145.6621C726.704,-135.0845 692.4775,-121.2401 664.7013,-110.0047"/>
<polygon fill="#000000" stroke="#000000" points="665.7521,-106.6543 655.1693,-106.1491 663.1272,-113.1436 665.7521,-106.6543"/>
</g>
<!-- [root] local.default_tags&#45;&gt;[root] var.project -->
<g id="edge25" class="edge">
<title>[root] local.default_tags&#45;&gt;[root] var.project</title>
<path fill="none" stroke="#000000" d="M793.2451,-143.8314C793.2451,-136.131 793.2451,-126.9743 793.2451,-118.4166"/>
<polygon fill="#000000" stroke="#000000" points="796.7452,-118.4132 793.2451,-108.4133 789.7452,-118.4133 796.7452,-118.4132"/>
</g>
<!-- [root] var.service_name -->
<g id="node20" class="node">
<title>[root] var.service_name</title>
<ellipse fill="none" stroke="#000000" cx="406.2451" cy="-18" rx="94.1705" ry="18"/>
<text text-anchor="middle" x="406.2451" y="-13.8" font-family="Times,serif" font-size="14.00" fill="#000000">[root] var.service_name</text>
</g>
<!-- [root] local.service_name&#45;&gt;[root] var.service_name -->
<g id="edge26" class="edge">
<title>[root] local.service_name&#45;&gt;[root] var.service_name</title>
<path fill="none" stroke="#000000" d="M406.2451,-71.8314C406.2451,-64.131 406.2451,-54.9743 406.2451,-46.4166"/>
<polygon fill="#000000" stroke="#000000" points="409.7452,-46.4132 406.2451,-36.4133 402.7452,-46.4133 409.7452,-46.4132"/>
</g>
<!-- [root] meta.count&#45;boundary (count boundary fixup) -->
<g id="node21" class="node">
<title>[root] meta.count&#45;boundary (count boundary fixup)</title>
<ellipse fill="none" stroke="#000000" cx="763.2451" cy="-522" rx="191.6931" ry="18"/>
<text text-anchor="middle" x="763.2451" y="-517.8" font-family="Times,serif" font-size="14.00" fill="#000000">[root] meta.count&#45;boundary (count boundary fixup)</text>
</g>
<!-- [root] meta.count&#45;boundary (count boundary fixup)&#45;&gt;[root] aws_sns_topic_policy.this -->
<g id="edge27" class="edge">
<title>[root] meta.count&#45;boundary (count boundary fixup)&#45;&gt;[root] aws_sns_topic_policy.this</title>
<path fill="none" stroke="#000000" d="M650.2887,-507.4201C578.0501,-497.7058 482.1341,-484.0883 388.5668,-468.1842"/>
<polygon fill="#000000" stroke="#000000" points="389.0899,-464.7229 378.643,-466.4872 387.9099,-471.6228 389.0899,-464.7229"/>
</g>
<!-- [root] meta.count&#45;boundary (count boundary fixup)&#45;&gt;[root] aws_sns_topic_subscription.this -->
<g id="edge28" class="edge">
<title>[root] meta.count&#45;boundary (count boundary fixup)&#45;&gt;[root] aws_sns_topic_subscription.this</title>
<path fill="none" stroke="#000000" d="M742.3007,-503.8314C732.176,-495.0485 719.8675,-484.3712 708.8903,-474.8489"/>
<polygon fill="#000000" stroke="#000000" points="711.0302,-472.0718 701.1828,-468.1628 706.4433,-477.3595 711.0302,-472.0718"/>
</g>
<!-- [root] meta.count&#45;boundary (count boundary fixup)&#45;&gt;[root] aws_sqs_queue_policy.this -->
<g id="edge29" class="edge">
<title>[root] meta.count&#45;boundary (count boundary fixup)&#45;&gt;[root] aws_sqs_queue_policy.this</title>
<path fill="none" stroke="#000000" d="M696.5364,-505.0282C655.9825,-494.7106 603.9267,-481.4667 561.0468,-470.5573"/>
<polygon fill="#000000" stroke="#000000" points="561.7575,-467.1267 551.2032,-468.0529 560.0315,-473.9106 561.7575,-467.1267"/>
</g>
<!-- [root] output.sns_topic_arn -->
<g id="node22" class="node">
<title>[root] output.sns_topic_arn</title>
<ellipse fill="none" stroke="#000000" cx="959.2451" cy="-378" rx="106.2751" ry="18"/>
<text text-anchor="middle" x="959.2451" y="-373.8" font-family="Times,serif" font-size="14.00" fill="#000000">[root] output.sns_topic_arn</text>
</g>
<!-- [root] meta.count&#45;boundary (count boundary fixup)&#45;&gt;[root] output.sns_topic_arn -->
<g id="edge30" class="edge">
<title>[root] meta.count&#45;boundary (count boundary fixup)&#45;&gt;[root] output.sns_topic_arn</title>
<path fill="none" stroke="#000000" d="M899.0162,-509.2858C952.7952,-501.1882 1005.7653,-488.2701 1022.2451,-468 1039.7883,-446.4219 1016.9101,-420.2277 993.9646,-401.6757"/>
<polygon fill="#000000" stroke="#000000" points="995.9646,-398.798 985.9118,-395.4525 991.6842,-404.3368 995.9646,-398.798"/>
</g>
<!-- [root] output.sqs_queue_url -->
<g id="node23" class="node">
<title>[root] output.sqs_queue_url</title>
<ellipse fill="none" stroke="#000000" cx="905.2451" cy="-450" rx="108.2046" ry="18"/>
<text text-anchor="middle" x="905.2451" y="-445.8" font-family="Times,serif" font-size="14.00" fill="#000000">[root] output.sqs_queue_url</text>
</g>
<!-- [root] meta.count&#45;boundary (count boundary fixup)&#45;&gt;[root] output.sqs_queue_url -->
<g id="edge31" class="edge">
<title>[root] meta.count&#45;boundary (count boundary fixup)&#45;&gt;[root] output.sqs_queue_url</title>
<path fill="none" stroke="#000000" d="M798.3462,-504.2022C817.5761,-494.4519 841.5737,-482.2841 861.9569,-471.9489"/>
<polygon fill="#000000" stroke="#000000" points="863.7016,-474.9886 871.0377,-467.3446 860.5359,-468.7453 863.7016,-474.9886"/>
</g>
<!-- [root] output.sns_topic_arn&#45;&gt;[root] aws_sns_topic.this -->
<g id="edge32" class="edge">
<title>[root] output.sns_topic_arn&#45;&gt;[root] aws_sns_topic.this</title>
<path fill="none" stroke="#000000" d="M888.4027,-364.5418C820.6428,-351.6692 719.0139,-332.3624 651.2124,-319.4819"/>
<polygon fill="#000000" stroke="#000000" points="651.5248,-315.9787 641.0473,-317.5508 650.2183,-322.8557 651.5248,-315.9787"/>
</g>
<!-- [root] output.sqs_queue_url&#45;&gt;[root] aws_sqs_queue.this -->
<g id="edge33" class="edge">
<title>[root] output.sqs_queue_url&#45;&gt;[root] aws_sqs_queue.this</title>
<path fill="none" stroke="#000000" d="M873.1488,-432.7542C855.369,-423.2009 833.0394,-411.2029 813.8177,-400.8748"/>
<polygon fill="#000000" stroke="#000000" points="815.4151,-397.7599 804.9495,-396.1098 812.1018,-403.9262 815.4151,-397.7599"/>
</g>
<!-- [root] provider.aws (close) -->
<g id="node24" class="node">
<title>[root] provider.aws (close)</title>
<ellipse fill="none" stroke="#000000" cx="449.2451" cy="-522" rx="104.3276" ry="18"/>
<text text-anchor="middle" x="449.2451" y="-517.8" font-family="Times,serif" font-size="14.00" fill="#000000">[root] provider.aws (close)</text>
</g>
<!-- [root] provider.aws (close)&#45;&gt;[root] aws_sns_topic_policy.this -->
<g id="edge34" class="edge">
<title>[root] provider.aws (close)&#45;&gt;[root] aws_sns_topic_policy.this</title>
<path fill="none" stroke="#000000" d="M413.2232,-504.937C392.7133,-495.2218 366.773,-482.9343 344.6285,-472.4448"/>
<polygon fill="#000000" stroke="#000000" points="345.933,-469.1899 335.3973,-468.0721 342.9363,-475.5161 345.933,-469.1899"/>
</g>
<!-- [root] provider.aws (close)&#45;&gt;[root] aws_sns_topic_subscription.this -->
<g id="edge35" class="edge">
<title>[root] provider.aws (close)&#45;&gt;[root] aws_sns_topic_subscription.this</title>
<path fill="none" stroke="#000000" d="M499.939,-506.1993C532.9589,-495.9074 576.4269,-482.3589 612.4097,-471.1435"/>
<polygon fill="#000000" stroke="#000000" points="613.8398,-474.3639 622.3453,-468.0467 611.7568,-467.681 613.8398,-474.3639"/>
</g>
<!-- [root] provider.aws (close)&#45;&gt;[root] aws_sqs_queue_policy.this -->
<g id="edge36" class="edge">
<title>[root] provider.aws (close)&#45;&gt;[root] aws_sqs_queue_policy.this</title>
<path fill="none" stroke="#000000" d="M457.0677,-503.8314C460.456,-495.9617 464.4992,-486.5712 468.2527,-477.8533"/>
<polygon fill="#000000" stroke="#000000" points="471.5772,-478.9822 472.3172,-468.4133 465.1478,-476.214 471.5772,-478.9822"/>
</g>
<!-- [root] provider.template (close) -->
<g id="node25" class="node">
<title>[root] provider.template (close)</title>
<ellipse fill="none" stroke="#000000" cx="1093.2451" cy="-522" rx="120.715" ry="18"/>
<text text-anchor="middle" x="1093.2451" y="-517.8" font-family="Times,serif" font-size="14.00" fill="#000000">[root] provider.template (close)</text>
</g>
<!-- [root] provider.template (close)&#45;&gt;[root] data.template_file.sqs_redrive_policy -->
<g id="edge37" class="edge">
<title>[root] provider.template (close)&#45;&gt;[root] data.template_file.sqs_redrive_policy</title>
<path fill="none" stroke="#000000" d="M1095.9898,-503.7569C1099.8028,-471.8312 1103.2869,-404.9558 1074.2451,-360 1066.0507,-347.3154 1053.7298,-337.1843 1040.8128,-329.2827"/>
<polygon fill="#000000" stroke="#000000" points="1042.2409,-326.0684 1031.8185,-324.1647 1038.7789,-332.1524 1042.2409,-326.0684"/>
</g>
<!-- [root] root -->
<g id="node26" class="node">
<title>[root] root</title>
<ellipse fill="none" stroke="#000000" cx="763.2451" cy="-594" rx="46.8976" ry="18"/>
<text text-anchor="middle" x="763.2451" y="-589.8" font-family="Times,serif" font-size="14.00" fill="#000000">[root] root</text>
</g>
<!-- [root] root&#45;&gt;[root] meta.count&#45;boundary (count boundary fixup) -->
<g id="edge38" class="edge">
<title>[root] root&#45;&gt;[root] meta.count&#45;boundary (count boundary fixup)</title>
<path fill="none" stroke="#000000" d="M763.2451,-575.8314C763.2451,-568.131 763.2451,-558.9743 763.2451,-550.4166"/>
<polygon fill="#000000" stroke="#000000" points="766.7452,-550.4132 763.2451,-540.4133 759.7452,-550.4133 766.7452,-550.4132"/>
</g>
<!-- [root] root&#45;&gt;[root] provider.aws (close) -->
<g id="edge39" class="edge">
<title>[root] root&#45;&gt;[root] provider.aws (close)</title>
<path fill="none" stroke="#000000" d="M722.8379,-584.7347C672.1325,-573.1079 584.2562,-552.958 521.7839,-538.6331"/>
<polygon fill="#000000" stroke="#000000" points="522.5145,-535.2099 511.9852,-536.3863 520.95,-542.0328 522.5145,-535.2099"/>
</g>
<!-- [root] root&#45;&gt;[root] provider.template (close) -->
<g id="edge40" class="edge">
<title>[root] root&#45;&gt;[root] provider.template (close)</title>
<path fill="none" stroke="#000000" d="M804.0406,-585.0992C856.5285,-573.6473 948.8177,-553.5114 1015.0361,-539.0638"/>
<polygon fill="#000000" stroke="#000000" points="1015.995,-542.437 1025.019,-536.8857 1014.5028,-535.5979 1015.995,-542.437"/>
</g>
</g>
</svg>
